<?xml version="1.0" encoding="utf-8"?>
<svg xmlns="http://www.w3.org/2000/svg" 
xmlns:xlink="http://www.w3.org/1999/xlink" 
style="margin: auto; background: rgb(241, 242, 243); display: block; shape-rendering: auto;" 
width="203px" 
height="203px" 
viewBox="0 0 100 100" 
preserveAspectRatio="xMidYMid">

<g transform="translate(50 50)">
<g>
<animateTransform 
    attributeName="transform" 
    type="rotate" 
    values="0;45" 
    keyTimes="0;1" 
    dur="0.7874015748031495s" 
    repeatCount="indefinite">
</animateTransform><path d="M32.920358442763046 -8.5 L42.920358442763046 -8.5 L42.920358442763046 8.5 L32.920358442763046 8.5 A34 34 0 0 1 29.288616334055213 17.267801053883908 L29.288616334055213 17.267801053883908 L36.35968414592069 24.338868865749383 L24.338868865749387 36.35968414592069 L17.26780105388391 29.288616334055213 A34 34 0 0 1 8.5 32.920358442763046 L8.5 32.920358442763046 L8.5 42.920358442763046 L-8.499999999999996 42.920358442763046 L-8.499999999999996 32.920358442763046 A34 34 0 0 1 -17.2678010538839 29.288616334055217 L-17.2678010538839 29.288616334055217 L-24.338868865749376 36.35968414592069 L-36.35968414592069 24.33886886574938 L-29.288616334055213 17.267801053883904 A34 34 0 0 1 -32.92035844276304 8.500000000000009 L-32.92035844276304 8.500000000000009 L-42.92035844276304 8.50000000000001 L-42.920358442763046 -8.5 L-32.920358442763046 -8.500000000000002 A34 34 0 0 1 -29.28861633405522 -17.267801053883897 L-29.28861633405522 -17.267801053883897 L-36.359684145920696 -24.33886886574937 L-24.338868865749383 -36.35968414592068 L-17.267801053883908 -29.288616334055213 A34 34 0 0 1 -8.50000000000001 -32.92035844276304 L-8.50000000000001 -32.92035844276304 L-8.500000000000012 -42.92035844276304 L8.499999999999996 -42.920358442763046 L8.499999999999998 -32.920358442763046 A34 34 0 0 1 17.267801053883897 -29.28861633405522 L17.267801053883897 -29.28861633405522 L24.33886886574937 -36.359684145920696 L36.35968414592068 -24.338868865749383 L29.288616334055213 -17.267801053883908 A34 34 0 0 1 32.92035844276304 -8.500000000000012 M0 -16A16 16 0 1 0 0 16 A16 16 0 1 0 0 -16" fill="#f6a25c"></path></g></g>
<!-- [ldio] generated by https://loading.io/ --></svg>